<svg width="154" height="27" viewBox="0 0 154 27" fill="none" xmlns="http://www.w3.org/2000/svg">
<path d="M17.1923 7.68H17.0963L15.4643 10.944L11.1123 18.848L6.85628 10.976L5.16028 7.456H5.06428V22.336H0.488281V0H5.64028L11.1123 10.464H11.1763L16.5843 0H21.7683V22.336H17.1923V7.68Z" fill="white"/>
<path d="M33.267 22.72C32.0297 22.72 30.9204 22.5173 29.939 22.112C28.979 21.7067 28.1577 21.12 27.475 20.352C26.8137 19.584 26.3017 18.656 25.939 17.568C25.5764 16.48 25.395 15.264 25.395 13.92C25.395 12.576 25.5764 11.36 25.939 10.272C26.3017 9.184 26.8137 8.26667 27.475 7.52C28.1577 6.752 28.979 6.16533 29.939 5.76C30.9204 5.35467 32.0297 5.152 33.267 5.152C34.5044 5.152 35.603 5.35467 36.563 5.76C37.5444 6.16533 38.3657 6.752 39.027 7.52C39.7097 8.26667 40.2324 9.184 40.595 10.272C40.9577 11.36 41.139 12.576 41.139 13.92C41.139 15.264 40.9577 16.48 40.595 17.568C40.2324 18.656 39.7097 19.584 39.027 20.352C38.3657 21.12 37.5444 21.7067 36.563 22.112C35.603 22.5173 34.5044 22.72 33.267 22.72ZM33.267 18.976C34.2057 18.976 34.931 18.688 35.443 18.112C35.955 17.536 36.211 16.7147 36.211 15.648V12.224C36.211 11.1573 35.955 10.336 35.443 9.76C34.931 9.184 34.2057 8.896 33.267 8.896C32.3284 8.896 31.603 9.184 31.091 9.76C30.579 10.336 30.323 11.1573 30.323 12.224V15.648C30.323 16.7147 30.579 17.536 31.091 18.112C31.603 18.688 32.3284 18.976 33.267 18.976Z" fill="white"/>
<path d="M50.214 22.336C48.5714 22.336 47.3234 21.92 46.47 21.088C45.638 20.256 45.222 19.04 45.222 17.44V9.216H42.854V5.536H44.038C44.678 5.536 45.1154 5.38667 45.35 5.088C45.5847 4.768 45.702 4.32 45.702 3.744V0.991999H49.958V5.536H53.286V9.216H49.958V18.656H53.03V22.336H50.214Z" fill="white"/>
<path d="M63.267 22.72C62.0297 22.72 60.9204 22.5173 59.939 22.112C58.979 21.7067 58.1577 21.12 57.475 20.352C56.8137 19.584 56.3017 18.656 55.939 17.568C55.5764 16.48 55.395 15.264 55.395 13.92C55.395 12.576 55.5764 11.36 55.939 10.272C56.3017 9.184 56.8137 8.26667 57.475 7.52C58.1577 6.752 58.979 6.16533 59.939 5.76C60.9204 5.35467 62.0297 5.152 63.267 5.152C64.5044 5.152 65.603 5.35467 66.563 5.76C67.5444 6.16533 68.3657 6.752 69.027 7.52C69.7097 8.26667 70.2324 9.184 70.595 10.272C70.9577 11.36 71.139 12.576 71.139 13.92C71.139 15.264 70.9577 16.48 70.595 17.568C70.2324 18.656 69.7097 19.584 69.027 20.352C68.3657 21.12 67.5444 21.7067 66.563 22.112C65.603 22.5173 64.5044 22.72 63.267 22.72ZM63.267 18.976C64.2057 18.976 64.931 18.688 65.443 18.112C65.955 17.536 66.211 16.7147 66.211 15.648V12.224C66.211 11.1573 65.955 10.336 65.443 9.76C64.931 9.184 64.2057 8.896 63.267 8.896C62.3284 8.896 61.603 9.184 61.091 9.76C60.579 10.336 60.323 11.1573 60.323 12.224V15.648C60.323 16.7147 60.579 17.536 61.091 18.112C61.603 18.688 62.3284 18.976 63.267 18.976Z" fill="white"/>
<path d="M74.5135 22.336V5.536H79.2495V9.184H79.4095C79.4949 8.71467 79.6442 8.26667 79.8575 7.84C80.0709 7.392 80.3482 6.99733 80.6895 6.656C81.0522 6.31467 81.4789 6.048 81.9695 5.856C82.4602 5.64267 83.0362 5.536 83.6975 5.536H84.5295V9.952H83.3455C81.9589 9.952 80.9242 10.1333 80.2415 10.496C79.5802 10.8587 79.2495 11.5307 79.2495 12.512V22.336H74.5135Z" fill="white"/>
<path d="M93.147 22.72C91.5257 22.72 90.1604 22.464 89.051 21.952C87.9417 21.4187 86.9497 20.672 86.075 19.712L88.859 16.896C89.4564 17.5573 90.1177 18.08 90.843 18.464C91.5684 18.848 92.3897 19.04 93.307 19.04C94.2457 19.04 94.8964 18.9013 95.259 18.624C95.6217 18.3253 95.803 17.9307 95.803 17.44C95.803 16.6507 95.2377 16.1813 94.107 16.032L92.283 15.808C88.507 15.3387 86.619 13.6107 86.619 10.624C86.619 9.81333 86.7684 9.07733 87.067 8.416C87.387 7.73333 87.8244 7.15733 88.379 6.688C88.955 6.19733 89.6377 5.824 90.427 5.568C91.2377 5.29067 92.1444 5.152 93.147 5.152C94.0217 5.152 94.7897 5.216 95.451 5.344C96.1337 5.45067 96.731 5.62133 97.243 5.856C97.7764 6.06933 98.2564 6.34667 98.683 6.688C99.131 7.008 99.5684 7.37067 99.995 7.776L97.275 10.56C96.7417 10.0267 96.1337 9.61067 95.451 9.312C94.7897 8.992 94.107 8.832 93.403 8.832C92.5924 8.832 92.0164 8.96 91.675 9.216C91.3337 9.472 91.163 9.81333 91.163 10.24C91.163 10.688 91.2804 11.04 91.515 11.296C91.771 11.5307 92.2404 11.7013 92.923 11.808L94.811 12.064C98.5017 12.5547 100.347 14.24 100.347 17.12C100.347 17.9307 100.176 18.6773 99.835 19.36C99.4937 20.0427 99.003 20.64 98.363 21.152C97.7444 21.6427 96.987 22.0267 96.091 22.304C95.2164 22.5813 94.235 22.72 93.147 22.72Z" fill="white"/>
<path d="M113.871 22.576C112.857 22.576 112.004 22.416 111.311 22.096C110.617 21.7627 109.997 21.296 109.451 20.696L111.191 18.936C111.564 19.3493 111.977 19.676 112.431 19.916C112.884 20.156 113.397 20.276 113.971 20.276C114.557 20.276 114.964 20.1893 115.191 20.016C115.417 19.8293 115.531 19.5827 115.531 19.276C115.531 18.7827 115.177 18.4893 114.471 18.396L113.331 18.256C110.971 17.9627 109.791 16.8827 109.791 15.016C109.791 14.5093 109.884 14.0493 110.071 13.636C110.271 13.2093 110.544 12.8493 110.891 12.556C111.251 12.2493 111.677 12.016 112.171 11.856C112.677 11.6827 113.244 11.596 113.871 11.596C114.417 11.596 114.897 11.636 115.311 11.716C115.737 11.7827 116.111 11.8893 116.431 12.036C116.764 12.1693 117.064 12.3427 117.331 12.556C117.611 12.756 117.884 12.9827 118.151 13.236L116.451 14.976C116.117 14.6427 115.737 14.3827 115.311 14.196C114.897 13.996 114.471 13.896 114.031 13.896C113.524 13.896 113.164 13.976 112.951 14.136C112.737 14.296 112.631 14.5093 112.631 14.776C112.631 15.056 112.704 15.276 112.851 15.436C113.011 15.5827 113.304 15.6893 113.731 15.756L114.911 15.916C117.217 16.2227 118.371 17.276 118.371 19.076C118.371 19.5827 118.264 20.0493 118.051 20.476C117.837 20.9027 117.531 21.276 117.131 21.596C116.744 21.9027 116.271 22.1427 115.711 22.316C115.164 22.4893 114.551 22.576 113.871 22.576Z" fill="white"/>
<path d="M120.389 7.536H123.349V13.616H123.469C123.655 13.0693 123.982 12.596 124.449 12.196C124.915 11.796 125.562 11.596 126.389 11.596C127.469 11.596 128.282 11.956 128.829 12.676C129.389 13.396 129.669 14.4227 129.669 15.756V22.336H126.709V15.996C126.709 15.316 126.602 14.816 126.389 14.496C126.175 14.1627 125.795 13.996 125.249 13.996C125.009 13.996 124.775 14.0293 124.549 14.096C124.322 14.1493 124.115 14.2427 123.929 14.376C123.755 14.5093 123.615 14.676 123.509 14.876C123.402 15.0627 123.349 15.2827 123.349 15.536V22.336H120.389V7.536Z" fill="white"/>
<path d="M136.563 22.576C135.789 22.576 135.096 22.4493 134.483 22.196C133.883 21.9427 133.369 21.576 132.943 21.096C132.529 20.616 132.209 20.036 131.983 19.356C131.756 18.676 131.643 17.916 131.643 17.076C131.643 16.236 131.756 15.476 131.983 14.796C132.209 14.116 132.529 13.5427 132.943 13.076C133.369 12.596 133.883 12.2293 134.483 11.976C135.096 11.7227 135.789 11.596 136.563 11.596C137.336 11.596 138.023 11.7227 138.623 11.976C139.236 12.2293 139.749 12.596 140.163 13.076C140.589 13.5427 140.916 14.116 141.143 14.796C141.369 15.476 141.483 16.236 141.483 17.076C141.483 17.916 141.369 18.676 141.143 19.356C140.916 20.036 140.589 20.616 140.163 21.096C139.749 21.576 139.236 21.9427 138.623 22.196C138.023 22.4493 137.336 22.576 136.563 22.576ZM136.563 20.236C137.149 20.236 137.603 20.056 137.923 19.696C138.243 19.336 138.403 18.8227 138.403 18.156V16.016C138.403 15.3493 138.243 14.836 137.923 14.476C137.603 14.116 137.149 13.936 136.563 13.936C135.976 13.936 135.523 14.116 135.203 14.476C134.883 14.836 134.723 15.3493 134.723 16.016V18.156C134.723 18.8227 134.883 19.336 135.203 19.696C135.523 20.056 135.976 20.236 136.563 20.236Z" fill="white"/>
<path d="M143.592 11.836H146.552V13.596H146.652C146.798 13.0093 147.132 12.5293 147.652 12.156C148.185 11.7827 148.792 11.596 149.472 11.596C150.805 11.596 151.812 12.0627 152.492 12.996C153.172 13.9293 153.512 15.2893 153.512 17.076C153.512 18.8627 153.172 20.2293 152.492 21.176C151.812 22.1093 150.805 22.576 149.472 22.576C149.125 22.576 148.798 22.5227 148.492 22.416C148.185 22.3227 147.905 22.1893 147.652 22.016C147.412 21.8293 147.205 21.616 147.032 21.376C146.858 21.1227 146.732 20.856 146.652 20.576H146.552V26.336H143.592V11.836ZM148.492 20.176C149.052 20.176 149.512 19.9827 149.872 19.596C150.245 19.196 150.432 18.6627 150.432 17.996V16.176C150.432 15.5093 150.245 14.9827 149.872 14.596C149.512 14.196 149.052 13.996 148.492 13.996C147.932 13.996 147.465 14.136 147.092 14.416C146.732 14.6827 146.552 15.056 146.552 15.536V18.636C146.552 19.116 146.732 19.496 147.092 19.776C147.465 20.0427 147.932 20.176 148.492 20.176Z" fill="white"/>
</svg>
